#!OML:ASF E:\CV Data\Top Level 1\Subject 1\Session 1\player.ASF
:FULLY-SPECIFIED
:DEGREES
814
root 3.55823 17.2958 -1.65576 7.33858 -10.0448 -2.08662
lowerback 1.8468 -2.97852 -0.540943
upperback -5.16684 -3.84075 3.71945
thorax -6.11543 -1.78601 4.45429
lowerneck -7.40697 -16.6789 -19.6213
upperneck 12.9968 -23.3783 17.0008
head 9.69035 -11.004 5.5503
rclavicle -2.39536e-014 3.89618e-014
rhumerus -22.0864 22.6124 -95.3886
rradius 33.125
rwrist -6.14595
rhand -15.7915 8.07123
rfingers 7.12502
rthumb 10.4013 -21.6515
lclavicle -2.39536e-014 3.89618e-014
lhumerus -22.0056 -32.5984 104.058
lradius 41.196
lwrist 2.85114
lhand -6.30197 10.5984
lfingers 7.12502
lthumb 19.5421 39.6363
rfemur -18.0063 0.0173778 22.3386
rtibia 39.4755
rfoot -25.9636 -16.0373
rtoes 6.42815
lfemur -10.273 2.56191 -16.177
ltibia 29.8525
lfoot -17.0169 15.8482
ltoes -8.17942
815
root 3.57917 17.2969 -1.66402 7.25853 -9.53802 -2.16792
lowerback 1.8894 -2.92815 -0.577506
upperback -5.14525 -3.77331 3.73697
thorax -6.11891 -1.74999 4.49072
lowerneck -7.07812 -16.7688 -19.7312
upperneck 12.6937 -23.545 17.2009
head 9.60325 -11.0977 5.62044
rclavicle -8.02345e-014 4.85035e-014
rhumerus -22.1397 20.8587 -94.52
rradius 31.6126
rwrist -4.2757
rhand -15.3781 8.04527
rfingers 7.12502
rthumb 10.8 -21.6571
lclavicle -8.02345e-014 4.85035e-014
lhumerus -22.2684 -31.894 103.536
lradius 40.8493
lwrist 1.66939
lhand -6.17189 10.0931
lfingers 7.12502
lthumb 19.6671 39.1183
rfemur -17.8709 -0.140041 22.403
rtibia 39.4104
rfoot -25.9466 -16.3011
rtoes 6.42426
lfemur -10.3024 2.34842 -16.0603
ltibia 29.8774
lfoot -17.0905 15.4575
ltoes -8.13276
816
root 3.59967 17.2985 -1.67147 7.18019 -9.08802 -2.22378
lowerback 1.91665 -2.86084 -0.637623
upperback -5.1214 -3.68547 3.73797
thorax -6.11248 -1.70336 4.5205
lowerneck -6.75302 -16.8614 -19.8396
upperneck 12.3973 -23.7234 17.431
head 9.52673 -11.195 5.69737
rclavicle 1.51325e-014 -1.35174e-014
rhumerus -22.213 19.0266 -93.6658
rradius 30.0702
rwrist -3.06682
rhand -15.0812 7.6609
rfingers 7.12502
rthumb 11.0864 -22.0263
lclavicle 1.51325e-014 -1.35174e-014
lhumerus -22.558 -31.1803 103.006
lradius 40.4913
lwrist 0.850236
lhand -6.25088 9.84272
lfingers 7.12502
lthumb 19.5912 38.8756
rfemur -17.7512 -0.283542 22.4351
rtibia 39.3554
rfoot -25.9195 -16.5394
rtoes 6.39923
lfemur -10.3339 2.23599 -15.9736
ltibia 29.905
lfoot -17.1563 15.0223
ltoes -8.09801
817
root 3.62005 17.3005 -1.67758 7.10526 -8.70682 -2.26084
lowerback 1.92552 -2.77461 -0.710671
upperback -5.09806 -3.57389 3.7244
thorax -6.09821 -1.64488 4.53953
lowerneck -6.426 -16.9583 -19.9586
upperneck 12.1101 -23.9168 17.6962
head 9.4637 -11.298 5.78392
rclavicle 1.45858e-014 -1.27222e-014
rhumerus -22.3 17.1151 -92.8206
rradius 28.4765
rwrist -2.48324
rhand -14.9663 7.0065
rfingers 7.12502
rthumb 11.1972 -22.6747
lclavicle 1.45858e-014 -1.27222e-014
lhumerus -22.8692 -30.431 102.462
lradius 40.1051
lwrist 0.351396
lhand -6.5134 9.79704
lfingers 7.12502
lthumb 19.3388 38.8554
rfemur -17.6492 -0.409667 22.4388
rtibia 39.313
rfoot -25.8788 -16.7474
rtoes 6.33533
lfemur -10.3621 2.20078 -15.9193
ltibia 29.9333
lfoot -17.2114 14.5924
ltoes -8.04898
818
root 3.64034 17.3028 -1.68244 7.03767 -8.3897 -2.27975
lowerback 1.90816 -2.67314 -0.790564
upperback -5.0732 -3.44333 3.69466
thorax -6.06953 -1.57743 4.54249
lowerneck -6.0935 -17.0497 -20.0704
upperneck 11.8339 -24.1094 17.9745
head 9.40563 -11.4005 5.87445
rclavicle 6.44311e-014 1.66979e-014
rhumerus -22.3752 15.0756 -91.9637
rradius 26.8182
rwrist -2.38463
rhand -15.018 6.17022
rfingers 7.12502
rthumb 11.1474 -23.5137
lclavicle 6.44311e-014 1.66979e-014
lhumerus -23.1894 -29.6345 101.887
lradius 39.6786
lwrist 0.116989
lhand -6.94073 9.9112
lfingers 7.12502
lthumb 18.9278 39.0103
rfemur -17.5667 -0.514437 22.4148
rtibia 39.2845
rfoot -25.8356 -16.9196
rtoes 6.27937
lfemur -10.3909 2.23106 -15.8988
ltibia 29.961
lfoot -17.253 14.1859
ltoes -7.99526
819
root 3.66041 17.3053 -1.68663 6.97447 -8.12309 -2.28505
lowerback 1.86989 -2.57613 -0.879729
upperback -5.05771 -3.31933 3.66401
thorax -6.03803 -1.51285 4.54944
lowerneck -5.71652 -17.1182 -20.2143
upperneck 11.5585 -24.2782 18.2725
head 9.3437 -11.4959 5.98451
rclavicle 2.71838e-014 -2.70347e-014
rhumerus -22.442 12.8949 -91.0769
rradius 25.0836
rwrist -2.51674
rhand -15.2323 5.18234
rfingers 7.12502
rthumb 10.9407 -24.5126
lclavicle 2.71838e-014 -2.70347e-014
lhumerus -23.5365 -28.7029 101.272
lradius 39.2197
lwrist 0.0746399
lhand -7.51125 10.1444
lfingers 7.12502
lthumb 18.3791 39.2961
rfemur -17.4988 -0.603196 22.3708
rtibia 39.2673
rfoot -25.7882 -17.0665
rtoes 6.2097
lfemur -10.4196 2.31431 -15.9054
ltibia 29.9882
lfoot -17.2769 13.8084
ltoes -7.94528
820
root 3.68063 17.3075 -1.68947 6.89799 -7.90074 -2.28325
lowerback 1.82506 -2.46729 -0.955748
upperback -5.02833 -3.17984 3.61553
thorax -5.99114 -1.44213 4.52842
lowerneck -5.35756 -17.1882 -20.3424
upperneck 11.294 -24.4521 18.5813
head 9.29051 -11.5918 6.09348
rclavicle -1.51822e-014 -3.26007e-014
rhumerus -22.4413 10.3819 -90.0964
rradius 23.2282
rwrist -2.55183
rhand -15.572 4.16402
rfingers 7.12502
rthumb 10.6131 -25.548
lclavicle -1.51822e-014 -3.26007e-014
lhumerus -23.867 -27.703 100.597
lradius 38.7151
lwrist 0.165163
lhand -8.1904 10.471
lfingers 7.12502
lthumb 17.7256 39.6831
rfemur -17.4186 -0.674204 22.312
rtibia 39.2582
rfoot -25.7473 -17.1868
rtoes 6.15225
lfemur -10.4249 2.43022 -15.9331
ltibia 30.016
lfoot -17.2912 13.4736
ltoes -7.90429
821
root 3.70049 17.3104 -1.69341 6.84068 -7.64779 -2.26951
lowerback 1.78446 -2.37373 -1.02591
upperback -5.01258 -3.06063 3.55823
thorax -5.9603 -1.38154 4.4972
lowerneck -4.9915 -17.2534 -20.4474
upperneck 11.0386 -24.6189 18.8655
head 9.23202 -11.6862 6.19367
rclavicle -1.36416e-014 -1.59028e-015
rhumerus -22.3844 7.41557 -88.97
rradius 21.2344
rwrist -2.18733
rhand -16.0204 3.23159
rfingers 7.12502
rthumb 10.1805 -26.5021
lclavicle -1.36416e-014 -1.59028e-015
lhumerus -24.1891 -26.5761 99.8581
lradius 38.165
lwrist 0.295646
lhand -8.93827 10.8502
lfingers 7.12502
lthumb 17.0059 40.1258
rfemur -17.3617 -0.755339 22.2454
rtibia 39.2515
rfoot -25.7157 -17.3193
rtoes 6.12836
lfemur -10.4654 2.52451 -15.9763
ltibia 30.0461
lfoot -17.2837 13.1561
ltoes -7.8752
822
root 3.7207 17.3127 -1.69595 6.77037 -7.4115 -2.25856
lowerback 1.75209 -2.27506 -1.06688
upperback -4.98522 -2.93381 3.48706
thorax -5.92459 -1.3191 4.43459
lowerneck -4.65488 -17.3361 -20.52
upperneck 10.7843 -24.8041 19.1302
head 9.17647 -11.7877 6.27659
rclavicle 1.33434e-014 -1.35174e-014
rhumerus -22.2582 3.76827 -87.6175
rradius 19.0722
rwrist -1.05096
rhand -16.5757 2.51955
rfingers 7.12502
rthumb 9.64478 -27.2397
lclavicle 1.33434e-014 -1.35174e-014
lhumerus -24.4839 -25.3227 99.0406
lradius 37.5746
lwrist 0.387722
lhand -9.73014 11.2535
lfingers 7.12502
lthumb 16.2435 40.593
rfemur -17.2831 -0.827159 22.1771
rtibia 39.2432
rfoot -25.6946 -17.4401
rtoes 6.12263
lfemur -10.4843 2.60376 -16.0265
ltibia 30.08
lfoot -17.2743 12.8879
ltoes -7.85277
823
root 3.7411 17.3145 -1.69792 6.69631 -7.16587 -2.25304
lowerback 1.73119 -2.18151 -1.07989
upperback -4.95424 -2.81276 3.40885
thorax -5.89257 -1.26097 4.34982
lowerneck -4.33957 -17.4261 -20.573
upperneck 10.5313 -24.9952 19.385
head 9.12308 -11.891 6.35057
rclavicle -2.42766e-014 0
rhumerus -22.1091 -0.836847 -85.925
rradius 16.7528
rwrist 1.26184
rhand -17.2276 2.07021
rfingers 7.12502
rthumb 9.0157 -27.7171
lclavicle -2.42766e-014 0
lhumerus -24.7518 -23.9104 98.1392
lradius 36.9513
lwrist 0.389291
lhand -10.5349 11.6534
lfingers 7.12502
lthumb 15.4685 41.0546
rfemur -17.1924 -0.897943 22.1151
rtibia 39.2284
rfoot -25.6795 -17.5718
rtoes 6.115
lfemur -10.4986 2.64415 -16.0754
ltibia 30.1194
lfoot -17.2664 12.6568
ltoes -7.81693
824
root 3.76178 17.3157 -1.6989 6.61461 -6.93215 -2.25481
lowerback 1.71955 -2.08611 -1.06712
upperback -4.91548 -2.68824 3.32613
thorax -5.85894 -1.20253 4.24586
lowerneck -4.05538 -17.5247 -20.6044
upperneck 10.2862 -25.1913 19.6209
head 9.07385 -11.9952 6.41167
rclavicle -1.81888e-014 7.15625e-015
rhumerus -22.0394 -6.79464 -83.7159
rradius 14.3291
rwrist 5.24328
rhand -17.9379 1.88056
rfingers 7.12502
rthumb 8.33023 -27.9352
lclavicle -1.81888e-014 7.15625e-015
lhumerus -24.9961 -22.3259 97.1529
lradius 36.3084
lwrist 0.282496
lhand -11.4031 11.9961
lfingers 7.12502
lthumb 14.6322 41.4599
rfemur -17.0837 -0.960083 22.0586
rtibia 39.2058
rfoot -25.6709 -17.7013
rtoes 6.10973
lfemur -10.4987 2.67058 -16.1203
ltibia 30.1646
lfoot -17.2675 12.4531
ltoes -7.7847
